<?xml version="1.0" encoding="utf-8"?>
<!-- Generator: Adobe Illustrator 24.1.1, SVG Export Plug-In . SVG Version: 6.00 Build 0)  -->
<svg version="1.1"
	 id="svg5204" xmlns:cc="http://creativecommons.org/ns#" xmlns:dc="http://purl.org/dc/elements/1.1/" xmlns:rdf="http://www.w3.org/1999/02/22-rdf-syntax-ns#" xmlns:svg="http://www.w3.org/2000/svg"
	 xmlns="http://www.w3.org/2000/svg" xmlns:xlink="http://www.w3.org/1999/xlink" x="0px" y="0px" viewBox="0 0 56.7 56.7"
	 style="enable-background:new 0 0 56.7 56.7;" xml:space="preserve">
<style type="text/css">
	.st0{fill:#CFF2FF;}
	.st1{fill:#F5FEFF;}
	.st2{fill:#FFFFFF;}
	.st3{fill:none;stroke:#675252;stroke-width:1.6;stroke-linecap:round;stroke-linejoin:round;stroke-miterlimit:8;}
</style>
<g id="layer1" transform="translate(0,-981.49605)">
	<g id="g9100" transform="translate(-528.27817,562.04002)">
		<g id="g7951">
			<g id="g147">
				<path id="path149" class="st0" d="M556.9,424.2L556.9,424.2c1.5,0,3.9,5.3,7.9,13.4c0.6,1,0.4,0.8,2.3,1.1
					c7.8,1.1,13.9,2,14.2,3.4c0.1,0.4-0.2,1-0.6,1.7c-1.1,1.6-3.7,4.1-6.8,7c-4.2,4.1-3.7,2.6-3,6.5c1.3,7.6,2.2,12.6,1,13.4
					c-0.2,0.1-0.3,0.2-0.6,0.2c-1.7,0-5.3-1.9-10.7-4.8c-4.6-2.5-3-2.5-7.5,0c-5.4,2.9-9,4.8-10.7,4.8c-0.2,0-0.4,0-0.6-0.2
					c-1.1-0.8-0.2-5.8,1-13.4c0.6-3.8,1.3-2.3-3-6.5c-3.1-3-5.6-5.4-6.8-7c-0.5-0.7-0.7-1.3-0.6-1.7c0.3-1.4,6.4-2.3,14.2-3.4
					c2.2-0.3,1.9-0.4,2.3-1.1C552.9,429.5,555.3,424.2,556.9,424.2L556.9,424.2z"/>
				<path id="path151" class="st1" d="M569.1,463.6c-17-7.8-7.7-7.8-24.5,0c2.1-18.6,5-9.6-7.6-23.3c18.3-4,10.4,2.3,19.9-14.6
					c9.4,16.8,1.5,10.6,19.9,14.6C564,454.1,567,444.9,569.1,463.6L569.1,463.6z"/>
				<path id="path153" class="st2" d="M580.7,443.8c-1-0.5-2.4-0.9-4.5-1.3c-2.6-0.5-6-1-10.5-1.6c-4.6-9.4-6.7-14.2-8.8-14.3
					c-2.1-0.1-4.2,4.6-9,14.3c-4.4,0.6-7.8,1.1-10.4,1.6c-2.1,0.4-3.5,0.7-4.6,1.2c-0.6-0.8-0.7-1.4-0.6-1.8c0.4-1.3,5.3-1.9,12-2.9
					c1.1-0.2,2.4-0.3,3.7-0.6c0.2,0,0.5-0.2,0.6-0.4l1.2-2.5c3.4-6.9,5.6-11.4,7-11.4s3.4,4.4,6.4,10.5c0.5,1,1,2.2,1.7,3.4
					c0.2,0.2,0.3,0.4,0.6,0.4l1.4,0.2c8.4,1.2,13.9,2,14.2,3.4C581.4,442.5,581.2,443.1,580.7,443.8L580.7,443.8z"/>
			</g>
			<path id="path1033" class="st3" d="M556.9,424.2L556.9,424.2c1.5,0,3.9,5.3,7.9,13.4c0.6,1,0.4,0.8,2.3,1.1
				c7.8,1.1,13.9,2,14.2,3.4c0.1,0.4-0.2,1-0.6,1.7c-1.1,1.6-3.7,4.1-6.8,7c-4.2,4.1-3.7,2.6-3,6.5c1.3,7.6,2.2,12.6,1,13.4
				c-0.2,0.1-0.3,0.2-0.6,0.2c-1.7,0-5.3-1.9-10.7-4.8c-4.6-2.5-3-2.5-7.5,0c-5.4,2.9-9,4.8-10.7,4.8c-0.2,0-0.4,0-0.6-0.2
				c-1.1-0.8-0.2-5.8,1-13.4c0.6-3.8,1.3-2.3-3-6.5c-3.1-3-5.6-5.4-6.8-7c-0.5-0.7-0.7-1.3-0.6-1.7c0.3-1.4,6.4-2.3,14.2-3.4
				c2.2-0.3,1.9-0.4,2.3-1.1C552.9,429.5,555.3,424.2,556.9,424.2L556.9,424.2z"/>
		</g>
	</g>
</g>
</svg>
